<?xml version="1.0" encoding="UTF-8"?>
<svg version="1.1" xmlns="http://www.w3.org/2000/svg" width="913" height="913">
<path d="M0 0 C-0.33 0.99 -0.66 1.98 -1 3 C-0.01 3 0.98 3 2 3 C1.67 2.34 1.34 1.68 1 1 C1.8353125 1.16757813 2.670625 1.33515625 3.53125 1.5078125 C7.26702273 2.03788836 10.73025446 1.98809237 14.5 1.875 C24.11782754 1.73502696 33.77506179 2.61825031 42 8 C43.09957031 8.67417969 44.19914063 9.34835937 45.33203125 10.04296875 C46.4923649 10.7575245 47.6525188 11.47237224 48.8125 12.1875 C49.40998047 12.55552734 50.00746094 12.92355469 50.62304688 13.30273438 C52.08218943 14.20156619 53.54111695 15.10074705 55 16 C54.67 16.99 54.34 17.98 54 19 C56.475 18.505 56.475 18.505 59 18 C59 17.34 59 16.68 59 16 C63.82247266 17.39597893 68.09715033 19.48161976 72.53515625 21.78125 C75.0092176 23.05557755 75.0092176 23.05557755 77.74609375 24.03125 C80.56963697 25.2448353 80.66866439 26.33732878 82 29 C83.6635479 29.67441131 85.33066942 30.3400321 87 31 C91.17099209 34.63624952 95.29168634 39.13318071 98 44 C97.67 44.99 97.34 45.98 97 47 C97.99 47.33 98.98 47.66 100 48 C101.86160969 53.61606414 102.3870541 58.92248695 102.375 64.8125 C102.37411377 65.59786133 102.37322754 66.38322266 102.37231445 67.19238281 C102.21532361 74.94151475 100.18007584 81.14696428 96.37109375 87.87890625 C94.79454897 91.46767913 94.72653839 93.78819958 94.875 97.6875 C94.98903296 103.76725735 94.95216108 109.79917195 94.6875 115.875 C94.65342041 117.03261841 94.65342041 117.03261841 94.61865234 118.21362305 C94.38669774 123.15616252 93.3859256 127.27898432 91.7019043 131.92431641 C90.77425332 134.66758202 90.4039498 137.3802871 90.0625 140.25 C89.35695722 145.0549896 88.16597152 147.28817132 85 151 C84.91730605 154.96930952 85.51376348 156.48763985 88.25390625 159.375 C89.16011719 160.24125 90.06632813 161.1075 91 162 C99.48685573 170.27468434 105.8982528 178.80411992 106.5625 191.0625 C105.92038293 195.5573195 105.20943704 196.06565757 102 199 C101.12296742 201.19906199 100.46824634 203.4205334 99.80078125 205.69140625 C99.00609859 207.9824182 98.01007238 209.72854322 96.6875 211.75 C95.8521875 213.35875 95.8521875 213.35875 95 215 C95.62904916 216.68122556 96.30136351 218.34647973 97 220 C97.18573055 221.99527671 97.30858057 223.9971986 97.375 226 C97.74624312 230.98439534 98.15761046 233.5517017 102 237 C102.61617187 237.56203125 103.23234375 238.1240625 103.8671875 238.703125 C106.75319618 241.29508751 109.51314123 243.69706565 112.8125 245.75 C116.42097141 249.46157059 117.07808611 254.01611965 118 259 C118.14050781 259.73089844 118.28101563 260.46179688 118.42578125 261.21484375 C118.83714928 265.28819383 117.81919039 267.78272882 115.375 270.875 C111.3921479 275.06357793 106.62135883 278.22429467 101.71240234 281.23583984 C98.36180467 283.42378104 97.10052926 284.66807065 95.92578125 288.546875 C96.00459282 292.21368706 96.39199451 293.34827481 98.5625 296.1875 C101.62612784 301.14887509 101.092985 304.77856401 99.8984375 310.34375 C99 313 99 313 96.6875 315.75 C96.130625 316.4925 95.57375 317.235 95 318 C95.73839626 319.90892216 96.4811629 321.81632119 97.25073242 323.71289062 C98.51596867 327.57497376 98.40017499 331.34641529 98.3125 335.375 C98.30412109 336.21135986 98.29574219 337.04771973 98.28710938 337.90942383 C98.18635593 343.08563196 97.65551932 347.9181684 96.4609375 352.96484375 C95.03054065 359.28040949 96.18127028 363.86418744 98.0625 369.9375 C100.76291652 379.08783223 100.22060757 383.95678963 96.125 392.5625 C91.81049366 400.13508006 85.98887314 405.57460768 77.5 408 C68.4375 408 68.4375 408 65.55859375 407.96875 C62.91380252 407.93608038 62.91380252 407.93608038 60 408.5 C57.07929393 408.98678434 54.51600071 408.99761195 51.5625 408.9375 C48.16994639 408.89646105 45.85576738 409.04195858 42.5625 410 C37.38946109 411.4520811 32.33876915 411.15779613 27 411 C27.33 413.31 27.66 415.62 28 418 C28.58007812 418.17015625 29.16015625 418.3403125 29.7578125 418.515625 C37.35242668 420.87170993 42.48768666 424.22519555 48 430 C49.33244088 431.31340601 50.66584724 432.62583296 52 433.9375 C54.38337607 436.28129972 56.23317462 438.34290386 58.125 441.125 C64.47830648 448.81584468 77.05741776 450.62180672 86.32104492 452.39331055 C92.9843794 453.69794079 99.44278358 455.46232186 105.9375 457.4375 C106.85974365 457.71392334 107.7819873 457.99034668 108.73217773 458.27514648 C113.42411625 459.72762276 117.8582345 461.36974584 122.32421875 463.4140625 C131.43250513 467.29056914 141.22634361 468.91951687 150.875 470.9375 C162.58833794 473.41099547 174.25757381 475.95308618 185.8203125 479.06640625 C186.69638153 479.29939926 187.57245056 479.53239227 188.47506714 479.77244568 C193.72793468 481.22001726 198.72155685 482.99966577 203.73931885 485.12513733 C207.28002867 486.49535924 210.90931275 487.15595965 214.625 487.875 C221.3808797 489.35420217 225.98222069 491.08257627 231 496 C232.48838939 497.40391323 233.97735825 498.80725609 235.4753418 500.20092773 C236.5042035 501.16458547 237.52214332 502.14009193 238.52661133 503.12915039 C242.16292041 506.6058376 245.41960435 508.16352061 250 510 C252.9375 512.5625 252.9375 512.5625 255 515 C255 515.66 255 516.32 255 517 C255.66 517 256.32 517 257 517 C257 517.66 257 518.32 257 519 C257.66 519 258.32 519 259 519 C260.69140625 521.30078125 260.69140625 521.30078125 262.5625 524.3125 C263.18253906 525.29863281 263.80257812 526.28476562 264.44140625 527.30078125 C266 530 266 530 267 533 C267.66 533 268.32 533 269 533 C274.06209347 537.91364498 276.32765752 544.02313255 278.65625 550.53125 C280.02335088 554.06027786 281.65904392 557.28649474 283.4375 560.625 C289.27855636 572.06479815 293.26612709 584.51097477 294.3828125 597.3359375 C294.82131933 600.13228211 294.82131933 600.13228211 296.8984375 602.29296875 C299.72091298 605.92861096 300.45268395 609.51349253 301.5 613.9375 C302.89884513 619.81747314 304.48160972 623.98368119 308 629 C309.16015625 632.03515625 309.16015625 632.03515625 310.0625 635.0625 C310.96539008 638.07342529 311.75731825 640.61785823 313.4453125 643.27587891 C315.18247704 646.31973599 316.0196203 649.09890382 316.90234375 652.48828125 C317.23331055 653.74447266 317.56427734 655.00066406 317.90527344 656.29492188 C318.24954675 657.63406375 318.59361863 658.97325742 318.9375 660.3125 C319.29527329 661.68180412 319.65367388 663.05094448 320.01269531 664.41992188 C322.11940023 672.47751778 324.16155789 680.55075419 326.140625 688.640625 C327.01018249 692.03980429 327.99328817 695.38913129 329 698.75 C331.34163794 706.82272847 332.87094386 715.01708902 334.46142578 723.26220703 C335.38471018 727.95563914 336.38494014 732.63278578 337.375 737.3125 C338.85498997 744.31050595 340.2625093 751.31784244 341.58203125 758.34765625 C341.7157312 759.05579971 341.84943115 759.76394318 341.98718262 760.49354553 C342.64921624 764.00095825 343.30352111 767.50948923 343.94482422 771.02075195 C344.30278076 772.92473755 344.30278076 772.92473755 344.66796875 774.8671875 C344.87703857 776.00269043 345.0861084 777.13819336 345.30151367 778.30810547 C345.79064943 781.12854528 345.79064943 781.12854528 348 783 C348.47070312 784.84643555 348.47070312 784.84643555 348.78125 787.13671875 C348.89976318 788.00844727 349.01827637 788.88017578 349.14038086 789.77832031 C349.25905518 790.73834961 349.37772949 791.69837891 349.5 792.6875 C349.62963135 793.69264648 349.7592627 794.69779297 349.89282227 795.73339844 C350.86268419 803.72163269 351.38908803 811.70509548 351.82757568 819.73791504 C352.36374799 829.55216063 353.07985435 839.00749736 355.39160156 848.57568359 C357.19868856 856.26837584 358.199392 864.04486007 359.1875 871.875 C359.35427246 873.15173584 359.52104492 874.42847168 359.69287109 875.74389648 C361.05947698 886.88531604 361.46157464 897.69306739 362 909 C74.57 909 -212.86 909 -509 909 C-509 849.63855605 -499.13235623 804.97025181 -481.0234375 751.09545898 C-479.58900072 746.75690367 -478.26780511 742.38977519 -477 738 C-476.79375 737.28585937 -476.5875 736.57171875 -476.375 735.8359375 C-475.91290756 734.2250319 -475.45576507 732.61270719 -475 731 C-474.34 731 -473.68 731 -473 731 C-473 730.34 -473 729.68 -473 729 C-473.66 728.67 -474.32 728.34 -475 728 C-486.60787651 704.44533088 -483.9804934 677.80240494 -475.89477539 653.75976562 C-474.97379617 650.91917922 -474.18063784 648.06550342 -473.4140625 645.1796875 C-472.36975737 641.27180792 -471.18366743 637.5135552 -469.6875 633.75 C-469.26082031 632.6671875 -468.83414063 631.584375 -468.39453125 630.46875 C-467.41433036 628.03060325 -466.43262739 625.5931012 -465.44921875 623.15625 C-461.99276522 614.58788362 -458.7178654 606.2191254 -456.6875 597.1875 C-454.33082546 587.58985134 -449.86792502 579.71569226 -443.640625 572.12109375 C-442.07701224 570.09956583 -440.88020684 568.13022386 -439.6875 565.875 C-433.75676432 554.75243996 -426.26098336 544.48988997 -418 535 C-417.54415527 534.46648926 -417.08831055 533.93297852 -416.61865234 533.38330078 C-415.17633261 531.7011608 -413.71643436 530.03613534 -412.25 528.375 C-411.80213135 527.85333252 -411.3542627 527.33166504 -410.89282227 526.79418945 C-408.11496492 523.71301175 -406.17620466 522.3154687 -402 522 C-402 521.34 -402 520.68 -402 520 C-400.19795412 518.7870845 -398.38029795 517.59389497 -396.51049805 516.48828125 C-394.78362928 515.46455354 -393.08258522 514.39638993 -391.40551758 513.29296875 C-383.73823765 508.42409683 -376.86953959 506.47460739 -367.9375 505.1875 C-366.15375977 504.90229492 -366.15375977 504.90229492 -364.33398438 504.61132812 C-362.00384888 504.2389671 -359.67232028 503.87519853 -357.33935547 503.52099609 C-352.54237798 502.77258624 -347.77096931 501.89778592 -343 501 C-343 500.67 -343 500.34 -343 500 C-341.65421875 499.76216797 -341.65421875 499.76216797 -340.28125 499.51953125 C-322.05278626 496.11110983 -305.85426365 489.60967346 -289 482 C-289 481.34 -289 480.68 -289 480 C-287.22109375 479.1646875 -287.22109375 479.1646875 -285.40625 478.3125 C-283.77078716 477.54176464 -282.1353732 476.77092554 -280.5 476 C-279.72785156 475.63777344 -278.95570313 475.27554687 -278.16015625 474.90234375 C-272.34733414 472.15869171 -266.59155634 469.30780099 -260.84651184 466.42578125 C-251.5533154 461.7671286 -242.2305527 457.16861257 -232.90161133 452.58203125 C-230.76319298 451.52947136 -228.62581681 450.47479143 -226.48950195 449.41796875 C-223.33280987 447.85669311 -220.17316404 446.30162657 -217.01171875 444.75 C-215.99149628 444.24791016 -214.9712738 443.74582031 -213.9201355 443.22851562 C-209.14665537 440.90673538 -204.37508374 438.69804855 -199.43603516 436.75 C-198.57105911 436.40743164 -197.70608307 436.06486328 -196.81489563 435.71191406 C-195.22748775 435.09691875 -193.63168336 434.50291381 -192.02629089 433.93652344 C-186.86726838 431.95360932 -184.3178306 429.44710049 -181.25761414 424.85009766 C-178.56765951 420.89285942 -175.89959215 419.22870987 -171.3125 418.0625 C-170.219375 417.711875 -169.12625 417.36125 -168 417 C-166.86321129 414.69224443 -166.86321129 414.69224443 -166 412 C-165.26294585 410.40144103 -164.51508009 408.80783319 -163.7578125 407.21875 C-152.48371931 382.98821411 -146.68801037 354.80629189 -155.05664062 328.56738281 C-158.28786587 319.77349961 -162.5259726 311.37589046 -166.6184082 302.96020508 C-168.28668156 299.38575474 -169.73215682 295.75413072 -171.11010742 292.05932617 C-172.23052873 289.4665268 -173.88090047 287.38263765 -175.578125 285.140625 C-180.64763679 277.50850285 -183.95511116 269.11140406 -185.8125 260.1875 C-188.01158768 249.80698454 -193.62671978 241.10281029 -199.1328125 232.16015625 C-206.13649907 220.48734531 -207.06560061 205.19851135 -209.0703125 191.98046875 C-210.45602976 181.77432982 -210.45602976 181.77432982 -213.125 171.875 C-214.14286813 168.53057614 -214.1148672 165.71480424 -213.97265625 162.24609375 C-213.92212934 159.96734401 -213.92212934 159.96734401 -214.52734375 157.67211914 C-215.01642479 154.90714397 -214.91998895 152.77883238 -214.58984375 150 C-213.81174633 142.57010338 -213.66203307 135.13669141 -213.48242188 127.671875 C-212.93726109 110.30901819 -212.93726109 110.30901819 -209 103 C-207.97154467 100.4569835 -206.98547992 97.89978182 -206 95.33984375 C-205 93 -205 93 -203 90 C-202.34 90 -201.68 90 -201 90 C-200.690625 88.9790625 -200.690625 88.9790625 -200.375 87.9375 C-198.57104973 84.08360625 -196.0989655 80.92212236 -193 78 C-192.34 78 -191.68 78 -191 78 C-190.67 77.34 -190.34 76.68 -190 76 C-189.34 75.01 -188.68 74.02 -188 73 C-187.34 73 -186.68 73 -186 73 C-186 72.34 -186 71.68 -186 71 C-185.34 71 -184.68 71 -184 71 C-184 70.34 -184 69.68 -184 69 C-182.10056922 66.91062614 -180.53559113 65.26779557 -178 64 C-177.896875 63.443125 -177.79375 62.88625 -177.6875 62.3125 C-176.3510333 57.817112 -173.12783323 54.77874199 -169.375 52.1875 C-167 51 -167 51 -164 50 C-164.33 49.01 -164.66 48.02 -165 47 C-164.34 46.01 -163.68 45.02 -163 44 C-162.34 44 -161.68 44 -161 44 C-160.80664062 43.37351563 -160.61328125 42.74703125 -160.4140625 42.1015625 C-160.15367187 41.28429688 -159.89328125 40.46703125 -159.625 39.625 C-159.36976563 38.81289063 -159.11453125 38.00078125 -158.8515625 37.1640625 C-158 35 -158 35 -156 33 C-155.23558594 33.05800781 -154.47117187 33.11601563 -153.68359375 33.17578125 C-149.78395199 32.9203462 -148.6382893 31.03185501 -146.0625 28.1875 C-142.63589503 24.42420801 -139.76705127 21.89649942 -135 20 C-132.66404762 20.31445513 -130.33094534 20.6503582 -128 21 C-125.94791089 20.68405595 -125.94791089 20.68405595 -123.75 20.125 C-120.29934053 19.29789536 -117.12261968 18.94285538 -113.58984375 18.95703125 C-103.08585392 18.95809333 -97.29276626 17.84821438 -89.078125 11.234375 C-83.64422813 7.2899727 -76.74616151 5 -70 5 C-69.67 4.34 -69.34 3.68 -69 3 C-66.55859375 2.25390625 -66.55859375 2.25390625 -63.4375 1.5625 C-59.85199184 0.76318289 -56.55780183 -0.16345868 -53.18359375 -1.58984375 C-48.62457523 -3.35179118 -44.45651501 -3.30807223 -39.625 -3.125 C-9.33836624 -2.30120356 -9.33836624 -2.30120356 0 0 Z " fill="#000000" transform="translate(530,4)"/>
<path d="M0 0 C1.98 0.99 1.98 0.99 4 2 C2.68 2 1.36 2 0 2 C0 1.34 0 0.68 0 0 Z " fill="#000000" transform="translate(581,16)"/>
<path d="M0 0 C2 1 2 1 2 1 Z " fill="#000000" transform="translate(585,18)"/>
<path d="" fill="#000000" transform="translate(0,0)"/>
<path d="" fill="#000000" transform="translate(0,0)"/>
<path d="" fill="#000000" transform="translate(0,0)"/>
<path d="" fill="#000000" transform="translate(0,0)"/>
</svg>
